<svg id="Calque_1" data-name="Calque 1" xmlns="http://www.w3.org/2000/svg" viewBox="0 0 92.58 43.36"><defs><style>.cls-1{fill:#11100c;}.cls-2{fill:#dd1c1b;}</style></defs><path class="cls-1" d="M93.66,52.32a1.85,1.85,0,0,1,3.69.14v.17A8.72,8.72,0,0,1,80,51.87V38.46a8.72,8.72,0,0,1,17.43-.39,1.89,1.89,0,0,1-1.87,1.87,1.82,1.82,0,0,1-1.83-1.55,5,5,0,0,0-5-4.93,5,5,0,0,0-5,5V51.87a5,5,0,0,0,10,.45Z" transform="translate(-30.02 -28.73)"/><path class="cls-1" d="M109.29,29.76h11.37a1.85,1.85,0,1,1,0,3.7H109.29v8.81H120a1.85,1.85,0,0,1,0,3.7H109.29V56.68h11.46a1.85,1.85,0,0,1,0,3.7H105.6V29.76Z" transform="translate(-30.02 -28.73)"/><path class="cls-2" d="M34.73,35.92a2.49,2.49,0,1,0,2.48-2.48A2.48,2.48,0,0,0,34.73,35.92Zm2.48,7.21a7.2,7.2,0,1,1,7.21-7.21A7.2,7.2,0,0,1,37.21,43.13Z" transform="translate(-30.02 -28.73)"/><path class="cls-2" d="M112.94,69.89a.76.76,0,1,0,.76-.75A.76.76,0,0,0,112.94,69.89Zm.76,2.2a2.2,2.2,0,1,1,2.19-2.2A2.2,2.2,0,0,1,113.7,72.09Z" transform="translate(-30.02 -28.73)"/><path class="cls-1" d="M53.72,66.86h-.53v-.71h2.57a1.84,1.84,0,0,1,0,3.68H54.55V72h-.83Zm1.91,2.26A1,1,0,0,0,56.74,68a1,1,0,0,0-1.1-1.12H54.55v2.26Z" transform="translate(-30.02 -28.73)"/><path class="cls-1" d="M58.47,68.67a.16.16,0,0,0-.18-.18H58V67.8h.76c.37,0,.54.15.54.49v.27a2.13,2.13,0,0,1,0,.29h0a1.44,1.44,0,0,1,1.32-1.1l.22,0v.79a1.5,1.5,0,0,0-.24,0,1.26,1.26,0,0,0-1.18,1,2.73,2.73,0,0,0-.1.76V72h-.8Z" transform="translate(-30.02 -28.73)"/><path class="cls-1" d="M63.2,67.7a1.78,1.78,0,0,1,1.8,2c0,.11,0,.34,0,.34H61.93a1.39,1.39,0,0,0,1.44,1.39,1.92,1.92,0,0,0,1.22-.48l.35.57a2.45,2.45,0,0,1-1.61.61A2.13,2.13,0,0,1,61.1,69.9,2.06,2.06,0,0,1,63.2,67.7Zm1,1.71a1,1,0,0,0-1-1.07A1.21,1.21,0,0,0,62,69.41Z" transform="translate(-30.02 -28.73)"/><path class="cls-1" d="M66.07,68.67a.16.16,0,0,0-.18-.18h-.34V67.8h.77c.36,0,.53.16.53.47v.15a1.35,1.35,0,0,1,0,.24h0a1.7,1.7,0,0,1,1.57-1c1,0,1.44.54,1.44,1.61v1.81a.16.16,0,0,0,.18.18h.34V72h-.79c-.38,0-.53-.16-.53-.53v-2c0-.59-.12-1-.79-1a1.35,1.35,0,0,0-1.32,1,1.61,1.61,0,0,0-.08.56v2h-.8Z" transform="translate(-30.02 -28.73)"/><path class="cls-1" d="M72.94,67.7a1.78,1.78,0,0,1,1.81,2c0,.11,0,.34,0,.34h-3a1.39,1.39,0,0,0,1.44,1.39,1.92,1.92,0,0,0,1.22-.48l.35.57a2.45,2.45,0,0,1-1.61.61,2.13,2.13,0,0,1-2.23-2.19A2.06,2.06,0,0,1,72.94,67.7Zm1,1.71a1,1,0,0,0-1-1.07,1.21,1.21,0,0,0-1.24,1.07Z" transform="translate(-30.02 -28.73)"/><path class="cls-1" d="M75.38,71.53l2.15-2.65c.18-.22.34-.39.34-.39v0a3,3,0,0,1-.4,0H76.33a.17.17,0,0,0-.19.18V69h-.73v-.62c0-.37.16-.53.53-.53h3v.47l-2.15,2.65a4.38,4.38,0,0,1-.35.38v0a3.24,3.24,0,0,1,.41,0h1.34a.16.16,0,0,0,.18-.18v-.28h.73v.62c0,.37-.16.53-.53.53H75.38Z" transform="translate(-30.02 -28.73)"/><path class="cls-1" d="M82.2,67a.16.16,0,0,0-.18-.18h-.34v-.69h.79c.37,0,.53.16.53.53v4.44a.16.16,0,0,0,.18.18h.34V72h-.79c-.38,0-.53-.16-.53-.53Z" transform="translate(-30.02 -28.73)"/><path class="cls-1" d="M86.13,67.7a1.78,1.78,0,0,1,1.8,2c0,.11,0,.34,0,.34H84.85a1.4,1.4,0,0,0,1.44,1.39,1.92,1.92,0,0,0,1.22-.48l.35.57a2.45,2.45,0,0,1-1.61.61A2.14,2.14,0,0,1,84,69.9,2.06,2.06,0,0,1,86.13,67.7Zm1,1.71a1,1,0,0,0-1-1.07,1.22,1.22,0,0,0-1.24,1.07Z" transform="translate(-30.02 -28.73)"/><path class="cls-1" d="M93.06,67.7c.51,0,1.51.21,1.51.92v.43h-.73v-.23c0-.3-.47-.43-.78-.43a1.41,1.41,0,0,0-1.43,1.5,1.43,1.43,0,0,0,1.47,1.49,1.88,1.88,0,0,0,1.3-.58l.35.57a2.29,2.29,0,0,1-1.7.72,2.2,2.2,0,1,1,0-4.39Z" transform="translate(-30.02 -28.73)"/><path class="cls-1" d="M97.47,67.7a2.2,2.2,0,1,1-2.25,2.19A2.19,2.19,0,0,1,97.47,67.7Zm0,3.69A1.5,1.5,0,1,0,96,69.89,1.44,1.44,0,0,0,97.47,71.39Z" transform="translate(-30.02 -28.73)"/><path class="cls-1" d="M100.73,68.67a.16.16,0,0,0-.18-.18h-.34V67.8H101c.35,0,.53.16.53.47v.15a1.35,1.35,0,0,1,0,.24h0a1.7,1.7,0,0,1,1.57-1c1,0,1.44.54,1.44,1.61v1.81a.16.16,0,0,0,.18.18H105V72h-.8c-.37,0-.53-.16-.53-.53v-2c0-.59-.11-1-.78-1a1.34,1.34,0,0,0-1.32,1,1.61,1.61,0,0,0-.08.56v2h-.8Z" transform="translate(-30.02 -28.73)"/><path class="cls-1" d="M105.94,68.45h-.55V67.8H106V66.65h.78V67.8h1v.65h-1v1.92a.83.83,0,0,0,.89.94.86.86,0,0,0,.19,0V72h-.28a1.44,1.44,0,0,1-1.6-1.56Z" transform="translate(-30.02 -28.73)"/><path class="cls-1" d="M108.82,68.67a.16.16,0,0,0-.18-.18h-.34V67.8h.76c.36,0,.53.15.53.49v.27c0,.16,0,.29,0,.29h0a1.44,1.44,0,0,1,1.33-1.1,1.21,1.21,0,0,1,.21,0v.79a1.35,1.35,0,0,0-.24,0,1.26,1.26,0,0,0-1.17,1,2.41,2.41,0,0,0-.1.76V72h-.8Z" transform="translate(-30.02 -28.73)"/><path class="cls-1" d="M113.33,66.15h.74l.73,1h-.66l-.43-.66h0l-.44.66h-.65Z" transform="translate(-30.02 -28.73)"/><path class="cls-1" d="M116.86,67c0-.13-.06-.18-.18-.18h-.34v-.69h.8c.37,0,.53.16.53.53v4.44a.16.16,0,0,0,.18.18h.34V72h-.8c-.37,0-.53-.16-.53-.53Z" transform="translate(-30.02 -28.73)"/><path class="cls-1" d="M120.79,67.7a1.78,1.78,0,0,1,1.8,2c0,.11,0,.34,0,.34h-3A1.39,1.39,0,0,0,121,71.39a1.92,1.92,0,0,0,1.22-.48l.35.57a2.45,2.45,0,0,1-1.61.61,2.13,2.13,0,0,1-2.23-2.19A2.06,2.06,0,0,1,120.79,67.7Zm1,1.71a1,1,0,0,0-1-1.07,1.21,1.21,0,0,0-1.23,1.07Z" transform="translate(-30.02 -28.73)"/><path class="cls-1" d="M73.28,58.21h0L66.51,29.76H60L53.22,58.19h0a1.85,1.85,0,0,0,3.59.92h0l1.53-7.37h9.8l1.54,7.36a1.85,1.85,0,0,0,3.6-.89ZM59.37,48.06l3.12-14.88H64l3.12,14.88Z" transform="translate(-30.02 -28.73)"/></svg>