<svg id="Calque_1" data-name="Calque 1" xmlns="http://www.w3.org/2000/svg" viewBox="0 0 59.68 59.68"><defs><style>.cls-1{fill:none;stroke:#1a407e;stroke-miterlimit:10;stroke-width:3.03px;}.cls-2,.cls-3{fill:#1a407e;}.cls-3{font-size:6.07px;font-family:Titillium-Bold, Titillium;font-weight:700;}.cls-4{letter-spacing:0em;}.cls-5{letter-spacing:-0.01em;}.cls-6{letter-spacing:0em;}</style></defs><circle class="cls-1" cx="29.84" cy="29.84" r="28.32"/><path class="cls-2" d="M80.15,42.44A1.14,1.14,0,0,0,79.87,41a1,1,0,0,0-1,0,1.86,1.86,0,0,0-.64,1.48h1.13v1.25H77a1.64,1.64,0,0,0,1,1.47,1.17,1.17,0,0,1-1,.8,2.46,2.46,0,0,1-.7,1.46A2.46,2.46,0,0,1,75.6,46a1.17,1.17,0,0,1-1-.8,1.62,1.62,0,0,0,1-1.47H73.27V42.49H74.4A1.89,1.89,0,0,0,73.76,41a1,1,0,0,0-1,0,1.16,1.16,0,0,0-.28,1.48,2.12,2.12,0,0,1-1.34-3.57A1.77,1.77,0,0,1,73,38.29c1.25.46,2.09,2,2.14,4.18h.66c0-2-.35-2.68-1.27-5.22a4.88,4.88,0,0,1,.66-4.08,9.16,9.16,0,0,1,1.1-1.41,10.59,10.59,0,0,1,1.1,1.41,4.87,4.87,0,0,1,.64,4.08c-.92,2.54-1.27,3.2-1.27,5.22h.66c0-2.23.89-3.72,2.14-4.18a1.76,1.76,0,0,1,1.92.58,2.13,2.13,0,0,1-1.36,3.57" transform="translate(-46.47 -20.57)"/><text class="cls-3" transform="translate(6.59 34.73)">UNE ENTREPRISE<tspan x="6.28" y="7.28">QUÉB</tspan><tspan class="cls-4" x="21.27" y="7.28">É</tspan><tspan class="cls-5" x="24.6" y="7.28">C</tspan><tspan class="cls-6" x="27.86" y="7.28">OISE</tspan></text></svg>